<?xml version="1.0" encoding="utf-8"?>
<!-- Generator: Adobe Illustrator 17.0.0, SVG Export Plug-In . SVG Version: 6.00 Build 0)  -->
<!DOCTYPE svg PUBLIC "-//W3C//DTD SVG 1.1//EN" "http://www.w3.org/Graphics/SVG/1.1/DTD/svg11.dtd">
<svg version="1.1" id="Capa_3" xmlns="http://www.w3.org/2000/svg" xmlns:xlink="http://www.w3.org/1999/xlink" x="0px" y="0px"
	 width="333.5px" height="75.858px" viewBox="0 0 333.5 75.858" enable-background="new 0 0 333.5 75.858" xml:space="preserve">
<path fill-rule="evenodd" clip-rule="evenodd" fill="#FEFEFE" d="M64.604,21.991c1.512,0.09,2.697,1.077,2.933,3.031
	c0.118,0.975,0.026,1.973,0.115,2.953c0.155,1.705,0.962,1.798,2.051,0.694c1.246-1.263,2.394-2.623,3.643-3.883
	c1.88-1.894,4.081-2.983,6.862-2.867c2.369,0.099,3.488,1.469,3.532,3.534c0.046,2.188-1.002,3.817-3.549,3.776
	c-1.783-0.028-3.55,0.075-5.28,0.534c-4.113,1.093-7.299,5.224-7.299,9.449c-0.001,7.102,0.004,14.205-0.005,21.307
	c-0.001,0.984-0.029,1.973-0.126,2.952c-0.136,1.377-0.665,2.582-2.241,2.655c-1.625,0.075-2.233-1.168-2.383-2.504
	c-0.264-2.349-0.356-4.717-0.516-7.078c-0.674-9.937-1.375-19.872-2.005-29.811C60.135,23.589,61.568,21.921,64.604,21.991z"/>
<path fill-rule="evenodd" clip-rule="evenodd" fill="#FDFDFD" d="M23.402,19.908c-0.871,0.048-1.679-0.082-1.957-0.992
	c-0.284-0.929,0.358-1.464,1.135-1.801c5.596-2.433,11.167-4.925,16.809-7.246c1.86-0.766,3.318,0.197,3.945,2.043
	c0.595,1.749-0.079,3.358-1.811,3.798C35.515,17.233,29.447,18.527,23.402,19.908z"/>
<path fill-rule="evenodd" clip-rule="evenodd" fill="#4E4E4E" d="M64.604,21.991c1.512,0.09,2.697,1.077,2.933,3.031
	c0.118,0.975,0.026,1.973,0.115,2.953c0.155,1.705,0.962,1.798,2.051,0.694c1.246-1.263,2.394-2.623,3.643-3.883
	c1.88-1.894,4.081-2.983,6.862-2.867c2.369,0.099,3.488,1.469,3.532,3.534c0.046,2.188-1.002,3.817-3.549,3.776
	c-1.783-0.028-3.55,0.075-5.28,0.534c-4.113,1.093-7.299,5.224-7.299,9.449c-0.001,7.102,0.004,14.205-0.005,21.307
	c-0.001,0.984-0.029,1.973-0.126,2.952c-0.136,1.377-0.665,2.582-2.241,2.655c-1.625,0.075-2.233-1.168-2.383-2.504
	c-0.264-2.349-0.356-4.717-0.516-7.078c-0.674-9.937-1.375-19.872-2.005-29.811C60.135,23.589,61.568,21.921,64.604,21.991z"/>
<path fill-rule="evenodd" clip-rule="evenodd" fill="#4E4E4E" d="M23.402,19.908c-0.871,0.048-1.679-0.082-1.957-0.992
	c-0.284-0.929,0.358-1.464,1.135-1.801c5.596-2.433,11.167-4.925,16.809-7.246c1.86-0.766,3.318,0.197,3.945,2.043
	c0.595,1.749-0.079,3.358-1.811,3.798C35.515,17.233,29.447,18.527,23.402,19.908z"/>
<text transform="matrix(1 0 0 1 173.717 29.7756)"><tspan x="0" y="0" fill="#4E4E4E" font-family="'LibreFranklin-SemiBold'" font-size="15.3948">ESCUELA PRÁCTICA</tspan><tspan x="0" y="18.474" fill="#4E4E4E" font-family="'LibreFranklin-SemiBold'" font-size="15.3948">DE DISEÑO Y</tspan><tspan x="0" y="36.948" fill="#4E4E4E" font-family="'LibreFranklin-SemiBold'" font-size="15.3948">NUEVAS TECNOLOGÍAS</tspan></text>
<path fill="#4E4E4E" d="M46.206,28.511c-0.066-3.888-2.863-6.395-6.712-6.499c-5.223-0.142-10.452-0.058-15.679-0.06
	c-1.121,0-2.314,0.085-2.478,1.503c-0.184,1.59,1.047,1.952,2.27,2.137c2.825,0.427,5.65,0.861,8.486,1.201
	c5.969,0.716,6.983,1.94,6.933,7.931c-0.014,1.626-0.544,2.168-2.064,2.44c-4.457,0.799-8.927,1.588-13.315,2.688
	c-6.075,1.523-10.588,6.79-11.266,12.713c-0.581,5.072,1.896,9.707,6.548,12.253c5.186,2.838,11.182,2.136,16.246-1.91
	c1.135-0.907,2.255-1.834,3.633-2.955c0.106,1.196,0.061,2.069,0.278,2.869c0.518,1.905,1.753,3.105,3.818,3.051
	c2.103-0.056,3.376-1.274,3.383-3.344C46.33,51.19,46.399,39.848,46.206,28.511z M38.559,54.075
	c-3.804,3.128-8.03,4.88-13.005,4.732c-4.727-0.141-7.249-3.442-5.912-7.96c1.007-3.405,3.365-5.494,6.808-6.278
	c2.781-0.633,5.58-1.197,8.39-1.692c4.489-0.79,6.383,0.875,6.389,5.911C41.911,51.019,40.418,52.547,38.559,54.075z"/>
<path fill="#4E4E4E" d="M118.877,24.105c-3.881-2.088-8.074-2.608-12.334-1.929c-7.252,1.158-14.396,6.552-13.882,15.958
	c0.231,4.223,0.081,8.47,0.031,12.706c-0.054,4.582,1.898,8.159,5.353,11.002c5.216,4.293,11.4,4.406,17.671,3.951
	c1.294-0.094,2.115-0.993,2.082-2.424c-0.031-1.436-0.841-2.185-2.203-2.268c-1.571-0.095-3.149-0.06-4.724-0.095
	c-4.701-0.105-8.273-2.988-9.137-7.63c-0.357-1.917-0.286-3.917-0.365-5.881c-0.075-1.855,0.864-2.671,2.708-2.642
	c2.758,0.045,5.516,0.012,8.275,0.012c0-0.015,0-0.03,0-0.045c2.955,0,5.911,0.059,8.864-0.018c2.677-0.07,4.436-1.436,5.08-4.085
	C127.859,34.301,124.704,27.239,118.877,24.105z M118.19,36.595c-0.316,1.353-1.129,2.006-2.503,2.004
	c-1.967-0.003-3.935-0.001-5.902,0c-1.967,0.001-3.935-0.006-5.902,0.003c-1.729,0.009-2.419-0.916-2.535-2.564
	c-0.261-3.699,1.286-5.955,4.911-6.988c2.417-0.688,4.868-0.722,7.287-0.121C117.171,29.829,119.03,32.997,118.19,36.595z"/>
<path fill="#4E4E4E" d="M164.455,29.475c-0.016-3.985-2.343-7.168-5.852-7.347c-5.705-0.291-11.432-0.133-17.15-0.145
	c-0.954-0.002-1.758,0.285-1.92,1.416c-0.179,1.245,0.529,1.813,1.594,2.078c0.475,0.119,0.974,0.14,1.461,0.214
	c3.602,0.548,7.239,0.936,10.798,1.693c3.148,0.67,3.95,2.794,3.787,7.609c-0.099,2.94-2.397,2.085-3.85,2.435
	c-3.922,0.943-7.995,1.341-11.835,2.519c-6.016,1.845-9.943,5.906-10.841,12.349c-0.741,5.317,1.571,9.778,6.179,12.396
	c5.154,2.928,11.174,2.335,16.268-1.621c1.16-0.901,2.285-1.848,3.898-3.157c0.092,1.121,0.125,1.684,0.186,2.244
	c0.264,2.444,1.618,3.862,4.087,3.684c2.404-0.173,3.231-1.814,3.223-4.119C164.449,50.974,164.498,40.225,164.455,29.475z
	 M156.582,54.164c-3.76,3.027-7.877,4.741-12.737,4.641c-4.946-0.102-7.403-3.334-6.017-8.067c0.973-3.323,3.292-5.32,6.577-6.129
	c2.671-0.658,5.392-1.121,8.094-1.651c4.865-0.956,6.773,0.611,6.777,5.962C159.909,51.125,158.495,52.624,156.582,54.164z"/>
</svg>
