<?xml version="1.0" encoding="utf-8"?>
<!-- Generator: Adobe Illustrator 17.0.0, SVG Export Plug-In . SVG Version: 6.00 Build 0)  -->
<!DOCTYPE svg PUBLIC "-//W3C//DTD SVG 1.1//EN" "http://www.w3.org/Graphics/SVG/1.1/DTD/svg11.dtd">
<svg version="1.1" id="Capa_1" xmlns="http://www.w3.org/2000/svg" xmlns:xlink="http://www.w3.org/1999/xlink" x="0px" y="0px"
	 width="512px" height="417px" viewBox="0 0 512 417" enable-background="new 0 0 512 417" xml:space="preserve">
<g>
	<g id="Capa_1_1_">
		<title>ionicons-v5-o</title>
	</g>
	<g id="Capa_1_copia">
		<title>ionicons-v5-o</title>
		<g>
			<path fill="#FFFFFF" d="M394.063,61.25H115.335c-25.645,0.027-46.427,20.81-46.455,46.455v199.091
				c0.027,25.645,20.81,46.427,46.455,46.455h278.727c25.645-0.027,46.427-20.81,46.455-46.455V107.705
				C440.49,82.06,419.707,61.277,394.063,61.25z M382.3,138.091L262.845,231c-4.792,3.725-11.5,3.725-16.292,0l-119.455-92.909
				c-5.85-4.417-7.01-12.741-2.593-18.59c4.417-5.85,12.741-7.01,18.59-2.593c0.1,0.075,0.197,0.152,0.295,0.23l111.308,86.571
				l111.308-86.571c5.85-4.417,14.173-3.257,18.59,2.593C388.928,125.463,387.909,133.601,382.3,138.091L382.3,138.091z"/>
			<path d="M127.098,138.091L246.553,231c4.792,3.725,11.5,3.725,16.292,0L382.3,138.091c5.609-4.49,6.628-12.627,2.298-18.361
				c-4.417-5.85-12.741-7.01-18.59-2.593l-111.308,86.571L143.39,117.136c-0.097-0.078-0.196-0.154-0.295-0.23
				c-5.85-4.417-14.173-3.257-18.59,2.593C120.088,125.35,121.248,133.673,127.098,138.091z"/>
		</g>
	</g>
</g>
</svg>
