<?xml version="1.0" encoding="utf-8"?>
<!-- Generator: Adobe Illustrator 17.0.0, SVG Export Plug-In . SVG Version: 6.00 Build 0)  -->
<!DOCTYPE svg PUBLIC "-//W3C//DTD SVG 1.1//EN" "http://www.w3.org/Graphics/SVG/1.1/DTD/svg11.dtd">
<svg version="1.1" id="Capa_1" xmlns="http://www.w3.org/2000/svg" xmlns:xlink="http://www.w3.org/1999/xlink" x="0px" y="0px"
	 width="323px" height="424px" viewBox="0 0 323 424" enable-background="new 0 0 323 424" xml:space="preserve">
<path fill="#FFFFFF" d="M171.339,20.024c7.229,1.241,14.545,2.11,21.672,3.783c53.81,12.63,94.88,58.064,102.219,112.794
	c4.204,31.352-1.738,60.685-17.905,87.802C242.994,281.99,208.51,339.486,173.909,396.91c-1.736,2.88-5.174,4.734-7.82,7.066
	c-1.75,0-3.5,0-5.249,0c-4.02-1.582-6.564-4.611-8.801-8.225c-34.707-56.06-69.499-112.068-104.252-168.1
	c-31.258-50.399-28.072-111.329,9.045-157.455C80.41,40.895,111.47,24.546,148.98,20.67c0.966-0.1,1.908-0.425,2.861-0.645
	C158.34,20.024,164.839,20.024,171.339,20.024z M163.321,370.855c0.577-0.871,1.002-1.461,1.375-2.083
	c31.232-52.146,62.587-104.22,93.634-156.476c15.425-25.961,19.41-53.906,12.744-83.372
	c-16.752-74.05-104.838-110.34-168.847-69.553C48.782,93.425,33.115,160.942,66.378,214.874
	c31.517,51.103,63.286,102.05,94.951,153.062C161.906,368.867,162.563,369.749,163.321,370.855z"/>
<path fill="#FFFFFF" d="M163.321,370.855c-0.758-1.106-1.414-1.987-1.992-2.918c-31.665-51.012-63.434-101.959-94.951-153.062
	C33.115,160.942,48.782,93.425,102.226,59.37c64.009-40.787,152.095-4.497,168.847,69.553c6.666,29.466,2.681,57.411-12.744,83.372
	c-31.047,52.256-62.402,104.33-93.634,156.476C164.323,369.393,163.897,369.984,163.321,370.855z M161.594,222.492
	c37.345-0.015,67.469-30.129,67.481-67.457c0.012-37.208-30.279-67.512-67.485-67.513c-37.191-0.001-67.493,30.313-67.485,67.513
	C94.112,192.315,124.318,222.507,161.594,222.492z"/>
<path d="M161.589,87.522c-37.19-0.001-67.492,30.314-67.485,67.513c0.007,37.281,30.214,67.472,67.49,67.457
	c37.346-0.016,67.469-30.129,67.48-67.457C229.086,117.826,198.795,87.523,161.589,87.522z"/>
</svg>
