<?xml version="1.0" encoding="utf-8"?>
<!-- Generator: Adobe Illustrator 17.0.0, SVG Export Plug-In . SVG Version: 6.00 Build 0)  -->
<!DOCTYPE svg PUBLIC "-//W3C//DTD SVG 1.1//EN" "http://www.w3.org/Graphics/SVG/1.1/DTD/svg11.dtd">
<svg version="1.1" id="Capa_1" xmlns="http://www.w3.org/2000/svg" xmlns:xlink="http://www.w3.org/1999/xlink" x="0px" y="0px"
	 width="288px" height="284.502px" viewBox="-41 -40.502 288 284.502" enable-background="new -41 -40.502 288 284.502"
	 xml:space="preserve">
<path fill="#FFFFFF" d="M179.743-18.72c1.586,0.382,3.191,0.702,4.754,1.158c4.232,1.236,7.809,3.554,10.911,6.671
	c5.867,5.893,11.58,11.955,17.697,17.578c8.853,8.139,11.263,18.325,10.174,29.715c-1.378,14.425-7.153,27.346-14.183,39.762
	c-11.352,20.047-25.782,37.804-41.322,54.681c-19.848,21.558-40.892,41.857-64.254,59.629
	c-14.202,10.804-29.075,20.531-45.924,26.809c-9.483,3.533-19.194,5.839-29.437,4.593c-7.048-0.858-13.306-3.409-18.401-8.527
	c-6.586-6.615-13.172-13.233-19.847-19.757c-4.021-3.93-6.087-8.809-7.435-14.106c0-2.197,0-4.395,0-6.591
	c0.588-1.937,1.083-3.908,1.784-5.801c1.537-4.145,4.175-7.515,7.647-10.22c10.635-8.288,21.236-16.621,31.944-24.815
	c9.521-7.286,21.168-7.153,30.645,0.163c2.296,1.773,4.527,3.63,6.841,5.377c5.922,4.472,13.64,4.142,18.885-1.065
	c19.311-19.169,38.571-38.391,57.787-57.658c5.094-5.106,5.521-12.621,1.253-18.484c-1.843-2.534-3.87-4.933-5.79-7.411
	c-7.087-9.145-7.24-20.856-0.191-30.035c8.213-10.693,16.559-21.284,24.881-31.892c4.146-5.287,9.512-8.532,16.237-9.407
	c0.377-0.049,0.737-0.24,1.104-0.365C176.918-18.72,178.331-18.72,179.743-18.72z M152.115,68.765
	c0.019,6.744-2.322,12.444-7.314,17.514c-4.183,4.248-8.435,8.43-12.655,12.64c-14.775,14.737-29.525,29.496-44.33,44.202
	c-9.502,9.439-22.691,10.169-33.252,1.935c-1.856-1.447-3.688-2.923-5.531-4.384c-6.592-5.226-13.083-5.297-19.714-0.158
	c-10.167,7.878-20.324,15.768-30.462,23.684c-7.898,6.169-8.533,15.544-1.517,22.611c6.466,6.513,13.007,12.953,19.486,19.454
	c3.284,3.297,7.256,5.097,11.817,5.765c8.419,1.23,16.382-0.749,24.159-3.595c16.375-5.989,30.786-15.442,44.517-25.951
	c27.269-20.869,51.614-44.833,73.973-70.831c12.707-14.775,24.298-30.367,33.004-47.91c4.729-9.528,8.524-19.376,9.108-30.159
	c0.408-7.521-1.337-14.163-7.187-19.559c-6.28-5.794-12.147-12.036-18.212-18.063c-6.46-6.418-16.043-6.05-21.698,1.051
	c-8.499,10.674-16.875,21.448-25.194,32.265c-4.044,5.258-3.918,11.955,0.071,17.251c1.84,2.443,3.791,4.801,5.668,7.216
	C150.289,58.158,152.114,63.144,152.115,68.765z"/>
<path fill="#FFFFFF" d="M154.559,67.123c0-5.902-1.915-11.137-5.519-15.772c-1.971-2.535-4.02-5.011-5.95-7.575
	c-4.187-5.559-4.318-12.59-0.074-18.11C151.748,14.31,160.54,3,169.464-8.205c5.935-7.454,15.996-7.841,22.778-1.103
	c6.367,6.327,12.526,12.88,19.118,18.962c6.141,5.665,7.972,12.637,7.545,20.533c-0.613,11.318-4.597,21.657-9.562,31.66
	c-9.139,18.416-21.308,34.785-34.647,50.295c-23.472,27.293-49.03,52.449-77.656,74.358c-14.416,11.033-29.544,20.955-46.733,27.243
	c-8.166,2.987-16.525,5.065-25.362,3.774c-4.788-0.699-8.958-2.591-12.406-6.052c-6.801-6.825-13.666-13.586-20.456-20.423
	c-7.366-7.419-6.701-17.261,1.592-23.737c10.641-8.31,21.305-16.594,31.978-24.863c6.962-5.395,13.775-5.319,20.696,0.166
	c1.935,1.534,3.858,3.085,5.807,4.603c11.086,8.644,24.933,7.877,34.908-2.032c15.542-15.439,31.028-30.932,46.537-46.402
	c4.432-4.42,8.894-8.809,13.285-13.269C152.124,80.186,154.581,74.203,154.559,67.123z"/>
</svg>
